<svg xmlns="http://www.w3.org/2000/svg" viewBox="0 0 24 24" id="cart_2-color">
	<g fill-rule="nonzero">
	<path d="M2 2h.298l.567.009.268.007.51.022c2.707.149 3.81.799 4.625 2.94.023.061.047.134.072.219l.078.29.085.364.031.149h14.747l-2.478 9.913-12.249 1.435-.286-1.29-.102-.54L7.078 9.1l-.3-1.672-.147-.757-.126-.585-.071-.286-.035-.11c-.407-1.069-.872-1.476-2.315-1.62l-.381-.03a14.611 14.611 0 00-.207-.011l-.449-.017-.498-.008L2 4a1 1 0 110-2zm18.718 6H8.916l.277 1.6.938 5.549 9.066-1.063L20.718 8z" fill="gray"></path>
	<path d="M10 19a2 2 0 110 4 2 2 0 010-4zm8 0a2 2 0 110 4 2 2 0 010-4z" fill="#e20000"></path>
	</g>
</svg>