<svg xmlns="http://www.w3.org/2000/svg" viewBox="0 0 24 24" id="phone_2-color">
	<g fill-rule="nonzero">
		<path d="M10.269 6.671L7.727 2.858a2.098 2.098 0 00-2.83-.639l-1.59.957A3.23 3.23 0 001.84 5.082c-.95 3.46.906 7.467 5.42 11.984 3.747 3.75 7.152 5.653 10.235 5.653a6.52 6.52 0 001.719-.224 3.253 3.253 0 001.94-1.492l.946-1.574c.58-.964.295-2.21-.638-2.83l-3.8-2.535-.147-.089a2.103 2.103 0 00-2.674.54l-.845 1.085-.285-.164c-.735-.438-1.3-.886-2.132-1.684l-.52-.51-.269-.273-.227-.235c-.794-.828-1.244-1.401-1.679-2.134l-.158-.275 1.077-.838a2.105 2.105 0 00.466-2.816zM6.06 3.963l2.54 3.81a.103.103 0 01-.025.136L7.153 9.016a1.481 1.481 0 00-.385 1.9l.11.201c.619 1.133 1.19 1.929 2.49 3.258l.29.294.537.526c1.095 1.051 1.832 1.59 2.775 2.123l.447.248a1.48 1.48 0 001.897-.402l1.101-1.416a.103.103 0 01.137-.02l3.803 2.538c.045.03.058.088.031.133l-.957 1.591c-.167.285-.43.488-.738.574-.384.104-.79.157-1.196.155-2.328 0-5.259-1.503-8.821-5.067-4.305-4.308-5.571-7.613-4.908-10.03.084-.302.287-.565.57-.732l1.592-.957a.098.098 0 01.132.03z" fill="gray"></path>
		<path d="M13.199 5.387c2.219.41 4.044 2.103 4.77 4.37.029.092.056.185.082.278a1 1 0 01-1.929.53l-.059-.198c-.506-1.583-1.754-2.741-3.227-3.013a1 1 0 01.363-1.967zm.814-3.246c3.253.638 5.904 3.207 6.873 6.601a1 1 0 11-1.923.55c-.768-2.69-2.841-4.7-5.335-5.188a1 1 0 01.385-1.963z" fill="#e20000"></path>
	</g>
</svg>